<svg viewBox="0 0 857 613" xmlns="http://www.w3.org/2000/svg"><path fill="currentColor" d="M487.6 61.3Q487.6 60.8 488.0 60.4Q488.4 60.0 489.1 60.0H558.1Q558.8 60.0 559.2 60.4Q559.6 60.8 559.6 61.3Q559.6 61.8 559.1 62.1Q558.7 62.5 557.8 62.8L548.8 65.6Q541.6 68.2 535.5 75.5Q529.5 82.7 525.6 95.8L453.5 332.2Q452.6 335.7 452.3 338.9Q452.0 342.2 452.0 346.1V357.6Q452.0 358.7 451.6 359.4Q451.2 360.0 450.1 360.0H404.4Q403.3 360.0 402.8 359.4Q402.3 358.7 402.3 357.6V346.2Q402.3 343.5 401.5 340.4Q400.8 337.3 399.5 333.4L316.6 73.9Q315.3 70.1 314.1 68.3Q312.9 66.4 310.6 65.8L299.6 63.0Q297.3 62.0 297.3 61.3Q297.3 60.8 297.8 60.4Q298.2 60.0 299.0 60.0H398.5Q399.4 60.0 399.8 60.4Q400.2 60.8 400.2 61.3Q400.2 61.8 399.6 62.1Q399.1 62.5 397.9 62.8L377.7 65.4Q373.1 66.3 372.1 68.8Q371.0 71.4 372.4 76.1L452.1 329.9L446.2 343.5L521.6 96.2Q525.0 85.0 521.2 76.7Q517.5 68.5 502.3 64.9L489.5 62.8Q488.4 62.5 488.0 62.1Q487.6 61.8 487.6 61.3Z"/><path fill="currentColor" d="M126.8 452.8Q126.8 451.5 127.7 450.7Q128.6 450.0 130.5 450.0H153.3Q155.3 450.0 156.2 450.7Q157.1 451.4 157.1 452.7Q157.1 453.7 156.5 454.3Q155.9 455.0 154.3 455.6L151.5 456.6Q149.4 457.4 147.9 459.3Q146.5 461.1 145.2 465.2L120.6 537.1Q119.9 539.3 119.5 540.7Q119.2 542.2 119.2 543.7V546.9Q119.2 548.4 118.4 549.2Q117.5 550.0 116.1 550.0H100.7Q99.2 550.0 98.4 549.2Q97.5 548.4 97.5 546.8V543.6Q97.5 542.5 97.2 541.2Q96.9 539.9 96.3 538.2L69.4 461.1Q68.7 459.0 67.8 458.1Q67.0 457.2 65.5 456.6L62.5 455.7Q60.0 454.8 60.0 452.8Q60.0 451.5 61.0 450.7Q61.9 450.0 63.8 450.0H96.3Q98.2 450.0 99.2 450.7Q100.1 451.5 100.1 452.8Q100.1 453.9 99.4 454.5Q98.7 455.2 97.3 455.6L91.9 456.6Q90.1 457.1 89.7 458.3Q89.3 459.6 90.3 462.4L116.9 539.3L111.0 543.7L137.9 464.7Q139.1 461.3 138.3 459.5Q137.6 457.6 134.2 456.5L129.6 455.6Q128.2 455.1 127.5 454.5Q126.8 453.9 126.8 452.8Z M237.7 447.6Q249.2 447.6 258.5 451.5Q267.8 455.4 274.5 462.5Q281.3 469.6 284.9 479.2Q288.5 488.9 288.5 500.6Q288.5 511.9 284.9 521.4Q281.3 530.9 274.6 537.9Q267.9 544.9 258.6 548.7Q249.3 552.5 237.9 552.5Q226.6 552.5 217.3 548.7Q208.0 544.8 201.3 537.7Q194.6 530.6 190.9 520.9Q187.3 511.2 187.3 499.5Q187.3 488.2 190.9 478.7Q194.5 469.3 201.2 462.3Q207.8 455.3 217.1 451.5Q226.3 447.6 237.7 447.6ZM268.7 511.7Q268.7 502.2 266.9 493.6Q265.1 485.0 261.8 477.8Q258.5 470.6 254.1 465.3Q249.7 460.0 244.4 457.1Q239.2 454.2 233.4 454.2Q225.5 454.2 219.7 458.3Q213.8 462.4 210.6 470.0Q207.3 477.6 207.3 488.4Q207.3 497.9 209.1 506.6Q210.9 515.2 214.2 522.4Q217.4 529.6 221.8 534.9Q226.2 540.3 231.5 543.2Q236.7 546.1 242.5 546.1Q250.4 546.1 256.3 542.0Q262.2 537.9 265.4 530.2Q268.7 522.5 268.7 511.7ZM243.7 428.8Q246.3 425.3 248.8 423.3Q251.4 421.4 254.7 422.1Q257.6 422.7 259.0 425.0Q260.3 427.3 259.8 429.7Q259.2 432.6 257.0 434.4Q254.8 436.2 251.2 437.7L237.4 444.4Q236.6 444.7 235.6 444.6Q234.7 444.6 234.1 444.0Q233.5 443.3 233.8 442.5Q234.0 441.7 234.6 440.9Z M362.9 455.9 358.4 456.8Q356.7 457.2 355.8 458.2Q354.9 459.1 354.9 460.6V538.9Q354.9 541.5 356.5 542.7Q358.0 543.8 361.3 543.8H374.9Q378.9 543.8 381.8 542.7Q384.7 541.6 387.0 538.9Q389.3 536.1 391.5 530.9L395.8 521.0Q396.6 519.5 397.6 518.9Q398.6 518.4 400.1 518.7Q401.6 519.0 402.2 520.0Q402.8 521.1 402.3 522.8L396.0 548.2Q395.4 550.5 394.3 551.6Q393.3 552.7 391.4 552.7Q390.0 552.7 388.7 552.0Q387.4 551.3 385.7 550.7Q384.1 550.0 381.7 550.0H328.6Q326.7 550.0 325.8 549.2Q324.9 548.5 324.9 547.2Q324.9 544.9 327.6 544.1L332.1 543.2Q333.8 542.8 334.7 541.8Q335.6 540.9 335.6 539.4V460.6Q335.6 459.1 334.7 458.2Q333.8 457.2 332.1 456.8L327.6 455.9Q324.9 455.1 324.9 452.8Q324.9 451.5 325.8 450.7Q326.7 450.0 328.6 450.0H361.9Q363.8 450.0 364.7 450.7Q365.6 451.5 365.6 452.8Q365.6 455.1 362.9 455.9Z M512.8 507.5 510.2 463.5Q510.1 460.6 508.7 459.0Q507.4 457.4 504.5 456.7L500.7 456.0Q498.7 455.5 497.9 454.8Q497.2 454.0 497.2 452.8Q497.2 451.5 498.2 450.8Q499.1 450.0 500.8 450.0H526.5Q528.2 450.0 529.2 450.8Q530.1 451.5 530.1 452.8Q530.1 454.0 529.3 454.8Q528.5 455.5 526.6 456.0L523.0 456.7Q519.6 457.5 518.4 459.3Q517.2 461.1 517.4 463.9L520.0 507.5Q520.2 511.1 520.4 514.6Q520.6 518.1 520.7 521.9Q520.9 530.7 516.8 537.6Q512.8 544.5 504.4 548.5Q496.1 552.4 483.4 552.4Q470.1 552.4 461.1 548.7Q452.1 544.9 447.7 538.1Q443.2 531.3 443.4 522.2Q443.4 520.4 443.6 517.6Q443.7 514.8 443.9 511.4Q444.1 507.9 444.3 504.2L446.7 461.1Q446.9 459.1 445.8 458.1Q444.7 457.1 442.3 456.7L438.3 456.0Q434.8 455.3 434.8 452.8Q434.8 451.5 435.8 450.8Q436.7 450.0 438.5 450.0H474.2Q476.0 450.0 476.9 450.8Q477.8 451.5 477.8 452.8Q477.8 454.0 477.0 454.8Q476.2 455.6 474.3 456.0L470.3 456.7Q468.2 457.1 467.2 458.0Q466.2 459.0 466.1 461.0L463.7 504.0Q463.4 509.1 463.3 513.2Q463.1 517.4 463.1 520.7Q462.8 533.2 469.4 539.3Q475.9 545.3 487.6 545.3Q495.7 545.3 501.6 542.5Q507.4 539.7 510.5 534.4Q513.6 529.2 513.4 521.9Q513.3 517.0 513.1 513.7Q513.0 510.4 512.8 507.5Z M595.7 547.2Q595.7 548.5 594.8 549.2Q593.8 550.0 591.9 550.0H567.6Q565.7 550.0 564.8 549.2Q563.8 548.5 563.8 547.2Q563.8 545.1 566.6 544.1L570.5 543.0Q573.7 541.9 574.9 540.5Q576.1 539.0 576.1 535.8V471.1Q576.1 469.0 575.6 467.6Q575.1 466.2 573.0 463.7L566.8 456.0Q565.8 454.6 565.4 453.9Q565.0 453.1 565.0 452.4Q565.0 451.2 565.9 450.6Q566.7 450.0 568.1 450.0H582.7Q584.6 450.0 585.8 450.7Q587.1 451.3 588.4 453.2L646.0 529.4L643.0 536.3V464.2Q643.0 461.0 641.8 459.6Q640.7 458.1 637.3 457.0L633.3 455.9Q630.4 454.8 630.4 452.8Q630.4 451.5 631.4 450.7Q632.3 450.0 634.2 450.0H658.5Q660.4 450.0 661.4 450.7Q662.3 451.5 662.3 452.8Q662.3 454.9 659.5 455.9L655.7 457.0Q652.4 458.0 651.2 459.5Q650.0 460.9 650.0 464.2V531.3Q650.0 533.4 650.4 534.8Q650.8 536.3 651.8 537.6L656.2 543.4Q657.4 545.0 657.7 545.8Q658.0 546.6 658.0 547.4Q658.0 548.6 657.2 549.3Q656.3 550.0 654.7 550.0H637.9Q634.9 550.0 634.9 547.6Q634.9 546.5 634.5 545.6Q634.1 544.6 632.2 542.1L577.4 469.3L583.2 465.2V535.9Q583.2 538.9 584.3 540.4Q585.5 541.8 588.8 543.0L592.9 544.1Q595.7 545.1 595.7 547.2Z M697.9 547.2Q697.9 544.9 700.6 544.1L705.1 543.2Q706.9 542.8 707.7 541.8Q708.6 540.9 708.6 539.4V460.6Q708.6 459.1 707.7 458.2Q706.9 457.2 705.1 456.8L700.6 455.9Q697.9 455.1 697.9 452.8Q697.9 451.5 698.8 450.7Q699.7 450.0 701.6 450.0H737.7Q751.0 450.0 761.9 453.9Q772.8 457.8 780.6 464.9Q788.4 472.0 792.6 481.7Q796.8 491.4 796.8 503.1Q796.8 516.7 790.6 527.3Q784.3 537.9 772.5 543.9Q760.8 550.0 744.3 550.0H701.6Q699.7 550.0 698.8 549.2Q697.9 548.5 697.9 547.2ZM742.8 543.9Q753.1 543.9 760.8 539.2Q768.4 534.6 772.6 525.4Q776.8 516.2 776.8 502.5Q776.8 491.9 773.9 483.3Q771.1 474.7 765.7 468.7Q760.3 462.6 752.8 459.4Q745.2 456.1 735.7 456.1H727.9V537.8Q727.9 540.9 729.7 542.4Q731.6 543.9 735.3 543.9Z"/></svg>
