<svg xmlns="http://www.w3.org/2000/svg" viewBox="290 52 276 316"><path fill="currentColor" d="M487.6 61.3Q487.6 60.8 488.0 60.4Q488.4 60.0 489.1 60.0H558.1Q558.8 60.0 559.2 60.4Q559.6 60.8 559.6 61.3Q559.6 61.8 559.1 62.1Q558.7 62.5 557.8 62.8L548.8 65.6Q541.6 68.2 535.5 75.5Q529.5 82.7 525.6 95.8L453.5 332.2Q452.6 335.7 452.3 338.9Q452.0 342.2 452.0 346.1V357.6Q452.0 358.7 451.6 359.4Q451.2 360.0 450.1 360.0H404.4Q403.3 360.0 402.8 359.4Q402.3 358.7 402.3 357.6V346.2Q402.3 343.5 401.5 340.4Q400.8 337.3 399.5 333.4L316.6 73.9Q315.3 70.1 314.1 68.3Q312.9 66.4 310.6 65.8L299.6 63.0Q297.3 62.0 297.3 61.3Q297.3 60.8 297.8 60.4Q298.2 60.0 299.0 60.0H398.5Q399.4 60.0 399.8 60.4Q400.2 60.8 400.2 61.3Q400.2 61.8 399.6 62.1Q399.1 62.5 397.9 62.8L377.7 65.4Q373.1 66.3 372.1 68.8Q371.0 71.4 372.4 76.1L452.1 329.9L446.2 343.5L521.6 96.2Q525.0 85.0 521.2 76.7Q517.5 68.5 502.3 64.9L489.5 62.8Q488.4 62.5 488.0 62.1Q487.6 61.8 487.6 61.3Z"/></svg>
